<svg id="Layer_1" xmlns="http://www.w3.org/2000/svg" xmlns:xlink="http://www.w3.org/1999/xlink" viewBox="-178 187.6 172 157"><style>.st0{fill:#4bb7e2}.st1{opacity:.46}.st2{fill:#fff}.st3{fill:#33699c}.st4{opacity:.35}.st5{opacity:.61}.st10,.st6,.st7,.st8,.st9{fill:none;stroke:#666;stroke-width:2;stroke-miterlimit:10}.st7{stroke-dasharray:4.21,4.21}.st8{stroke-dasharray:4,4}.st9{stroke-dasharray:3.75,3.75}.st10{opacity:.61;stroke-dasharray:4;enable-background:new}</style><title>batchly</title><g id="Layer_1_1_"><path id="_Path_" class="st0" d="M-44 239.6v69l-54.5 29.7v-73.2z"/><image width="128" height="172" xlink:href="CF697100.png" transform="translate(-135 202.65)" overflow="visible" id="_Group_" class="st1"/><path id="_Path_2" class="st2" d="M-44 239.6l-54.5-22.2-53.7 21.5s52.8 26.6 53.7 26.2l54.5-25.5"/><path id="_Path_3" class="st3" d="M-152.1 238.9v70.4l53.6 29v-73.2z"/><image width="127" height="172" xlink:href="CF697101.png" transform="translate(-189 202.65)" overflow="visible" id="_Group_2" class="st4"/><g id="_Group_3"><path id="_Path_4" class="st0" d="M-60 189.8l4.8 11.7-7.2 8.8-5.1-12.4z"/><path id="_Path_5" class="st2" d="M-60 189.8h-10.8l-7.6 7.4s10.8.8 10.9.7l7.5-8.1"/><path id="_Path_6" class="st3" d="M-78.4 197.2l4.9 12 11.1 1.1-5.1-12.4z"/></g><g id="_Group_4" class="st5"><path class="st6" d="M-152.1 238.9v-2"/><path class="st7" d="M-152.1 232.7v-40"/><path class="st6" d="M-152.1 190.6v-2"/></g><g id="_Group_5" class="st5"><path class="st6" d="M-132.2 230.6v-2"/><path class="st8" d="M-132.2 224.6v-30"/><path class="st6" d="M-132.2 192.6v-2"/></g><g id="_Group_6" class="st5"><path class="st6" d="M-24.3 310.1v-2"/><path class="st9" d="M-24.3 304.3v-50.6"/><path class="st6" d="M-24.3 251.8v-2"/></g><g id="_Group_7"><path id="_Path_7" class="st0" d="M-132.3 200.1l.1 12.6-9.9 5.5-.1-13.4z"/><path id="_Path_8" class="st2" d="M-132.3 200.1l-10-4-9.8 4s9.7 4.8 9.9 4.7l9.9-4.7"/><path id="_Path_9" class="st3" d="M-152.1 200.1l.1 12.9 9.9 5.2-.1-13.4z"/></g><path id="_Path_10" class="st10" d="M-44 266.8l35.3 16.4"/><path id="_Path_11" class="st10" d="M-43.5 279.9l31.9 14.9"/><g id="_Group_8"><path id="_Path_12" class="st0" d="M-14.4 270.8l.1 12.7-10 5.5-.1-13.4z"/><path id="_Path_13" class="st2" d="M-14.4 270.8l-10-4-9.8 4s9.7 4.8 9.9 4.7l9.9-4.7"/><path id="_Path_14" class="st3" d="M-34.3 270.9l.2 12.9 9.8 5.2-.1-13.4z"/></g></g></svg>