<svg id="Layer_1" xmlns="http://www.w3.org/2000/svg" xmlns:xlink="http://www.w3.org/1999/xlink" viewBox="-194 197.7 170 145"><style>.st0{opacity:.12}.st1{fill:#3389bc}.st2{fill:#fff}.st3{opacity:.17}.st4{fill:#4bb7e2}.st5{opacity:.35}</style><title>batchly</title><g id="Layer_1_1_"><g id="_Group_" class="st0"><path id="_Path_" d="M-54 269.4c-7 4.5-16.2 3.8-22.5-1.7-6.4-5.4-8.8-14.3-5.9-22.1.5-1.3 1.1-1.7 2.2-.8l.2.1c1.1.7 2.5.9 3.2 2s-.4 2.2-.6 3.4c-1 5.9 1.9 11.8 7.2 14.6 5.2 2.7 11.6 1.5 15.4-3 3.7-4.7 3.8-11.2.4-16.1-1.5-2.3-3.8-4-6.4-4.8-1.3-.4-1.2-.9-.7-1.8 2.6-5.4 5.1-10.9 7.7-16.3.6-.9.6-2.1.1-3-1.8-3.2-.6-7.3 2.7-9.1.3-.2.6-.3 1-.4 3.7-1.3 7.7.7 9 4.5 0 .1.1.3.1.4 1.1 3.5-.8 7.3-4.3 8.4-.3.1-.6.2-1 .2-.8.1-1.5.6-1.8 1.3-1.7 3.8-3.5 7.5-5.3 11.2-.5.7-.3 1.8.4 2.3l.1.1c8.9 7.7 9.4 21 1.2 28.8l-2.4 1.8z"/><path id="_Path_2" d="M-59.9 220.6c-6.6.3-13 .6-19.5.9-1.1-.1-2.1.5-2.6 1.4-2 3.1-6.2 3.9-9.2 1.8-.3-.2-.5-.4-.8-.6-3-2.6-3.4-7.4-.8-10.1 2.5-2.7 6.8-2.9 9.6-.4.2.2.5.4.7.7.6.8 1.6 1.3 2.6 1.1 3.9-.2 7.8-.4 11.7-.5 1.5 0 1.9-.5 2.2-1.9 1.4-7.3 5.6-12.3 12.7-14.4 6.9-2 13.3-.4 18.6 4.8 5.7 5.6 7.5 12.5 5.3 19.9s-7.4 11.6-15 12.8c-1.2.2-1.5-.2-1.5-1.3 0-1.4-.6-2.9-.2-4.1.4-1.4 2.3-.8 3.4-1.2 4.9-2 7.8-5.7 8.1-11.1.5-5.1-2.1-10-6.6-12.5-4.7-2.8-9.4-2.7-13.7.3s-5.9 7.4-5.1 12.8c-.2.4-.1.9.1 1.6z"/><path id="_Path_3" d="M-104.5 226.5c-4.1-8-1.6-18.3 5.3-23.4 8.1-5.9 19.7-4.2 26.2 4 .8 1 .9 1.5-.3 2.2-1.1.6-2.2 1.9-3.4 2.1-1.2.2-1.9-1.6-2.8-2.4-5.3-4.4-12.9-4.3-17.4.5-4.5 4.9-4.7 12.4-.4 17.6 5 5.6 12.5 6.6 18 2.1 1.3-1 1.7-.9 2.5.4 3.3 5.2 6.8 10.3 10.2 15.4.4.8 1.3 1.4 2.3 1.4 3.9.3 6.9 3.7 6.6 7.7 0 .2 0 .4-.1.6-.5 3.6-3.8 6.1-7.4 5.6-.3 0-.5-.1-.8-.2-3.8-.9-6.2-4.7-5.3-8.5 0-.2.1-.4.2-.6.3-.9.2-2-.5-2.8-2.3-3.4-4.6-6.9-6.9-10.3-.3-.8-1.2-1.2-2-.9-.1 0-.2.1-.2.1-7.3 2.5-15.4.3-20.5-5.5-.7-2.1-1.9-3.8-3.3-5.1z"/><path id="_Path_4" d="M-104.5 226.5c1.5 1.3 2.6 3 3.2 4.9-1.4-1.4-2.5-3.1-3.2-4.9z"/></g><g id="_Group_2"><path id="_Path_5" class="st1" d="M-155 251.9l47.3-34.9 47.4 34.9-54.9 49.1-26-20.5z"/><path id="_Path_6" class="st2" d="M-143.1 260.9V227h75.5v30.4l-40.1 30.1z"/><path id="_Path_7" class="st1" d="M-60.3 323.2H-155v-71.3l47.3 35.6 47.4-35.6z"/><image width="168" height="144" xlink:href="99DB8EF8.png" transform="translate(-194 220.66)" overflow="visible" id="_Group_3" class="st3"/><path id="_Path_8" class="st4" d="M-155 323.2l47.3-48.6 47.4 48.6z"/><image width="168" height="122" xlink:href="99DB8EF9.png" transform="translate(-192 237.66)" overflow="visible" id="_Group_4" class="st5"/><g id="_Group_5"><g id="_Group_6"><path id="_Path_9" class="st4" d="M-95.9 261.5h-23.3c-.3-.7-.1-1.5.6-1.9 1.6-1.1 2.5-3.1 2.2-5-.2-1.9-.1-3.9.1-5.8.3-3.4 2.6-6.3 5.9-7.3.5-.1.9-.6.9-1.1 0-1.1.9-2 2-2s2 .9 2 2c-.1.5.3.9.7 1 3.8 1.2 6.3 4.7 6.2 8.6v6.5c-.1.6.2 1.2.7 1.6.5.4.9 1 1.5 1.4.5.5.7 1.3.5 2z"/><path id="_Path_10" class="st4" d="M-110.3 263h5.3c.1 1.4-1 2.6-2.4 2.6-1.5.1-2.8-1-2.9-2.5v-.1z"/></g></g></g></g></svg>