<svg id="Layer_1" xmlns="http://www.w3.org/2000/svg" xmlns:xlink="http://www.w3.org/1999/xlink" viewBox="-158 222 152.6 99"><style>.st0{opacity:.16}.st1{fill:#fff}.st2{fill:#eaf6f9}.st3{fill:#ff4355}.st4{fill:#33699c}.st5{fill:#4bb7e2}.st6{fill:#58caed}.st7{opacity:.46}.st8{opacity:.72}.st9{opacity:.85}</style><title>batchly</title><g id="Layer_1_1_"><g id="_Group_" class="st0"><path id="_Compound_Path_" d="M-68.8 227.3c-.8-.2-1.6.4-1.8 1.2v6.8c.1 1.2-.7 2.3-1.9 2.4 1.2.1 2 1.1 1.9 2.3v7c0 .4.1.8.4 1.1.5.2 1.1.3 1.6.3v2.8h-1c-2.7 0-4-1.3-4-3.9V241c0-.5-.1-1-.3-1.4-.3-.3-.7-.4-1.1-.4h-.7v-2.7h.7c.4 0 .8-.1 1.1-.4.3-.4.4-.9.3-1.4v-6.1c0-2.6 1.3-3.9 4-3.9h1v2.7c-.1-.1-.2-.1-.2-.1z"/><path id="_Compound_Path_2" d="M-61.3 242.2l-2.1 4.7h-3.7l9-20.5h3.7l9 20.5H-49l-2.1-4.7h-10.2zm8.8-3.2l-3.7-8.4-3.7 8.5 7.4-.1z"/><path id="_Compound_Path_3" d="M-28.6 228.1c1.4 1.2 2.1 3 2.1 5.5s-.7 4.3-2.2 5.5c-1.5 1.2-3.7 1.7-6.7 1.7H-39v6h-3.5v-20.5h7c3.2 0 5.4.6 6.9 1.8zm-2.5 8.5c.7-.9 1.1-2.1 1-3.2.1-1.2-.4-2.3-1.3-3-1.3-.7-2.7-1-4.1-.9H-39v8.2h4c1.9 0 3.2-.4 3.9-1.1z"/><path id="_Compound_Path_4" d="M-22.4 226.3h3.4v20.5h-3.5l.1-20.5z"/><path id="_Compound_Path_5" d="M-13.6 251.1h-1v-2.7c.6.1 1.1 0 1.6-.3.3-.3.5-.7.4-1.1v-6.9c-.1-1.2.7-2.2 1.9-2.4h.1c-1.2-.1-2.1-1.2-1.9-2.4V229c.1-.5-.1-1-.4-1.3-.3-.3-.6-.4-1-.4h-.1l-.5.1v-2.7h1c2.7 0 4 1.3 4 3.9v6.1c0 .5.1 1 .4 1.4.3.3.7.4 1.1.4h.7v2.7H-8c-.4 0-.8.1-1.1.4-.3.4-.4.9-.4 1.4v6.3c-.1 2.5-1.4 3.8-4.1 3.8z"/></g><g id="_Group_2"><path id="_Path_" class="st1" d="M-141.9 303.6l58.7-56.8s48.7-.8 50.6 0S-5.4 275-5.4 275v28.6L-18.3 321h-103.2l-20.4-17.4z"/><path id="_Path_2" class="st2" d="M-141.9 303.6l-9.3-8.6v-24.3l12.7-12.3h24l10.7 8.3z"/><image width="121" height="119" xlink:href="89653244.png" transform="matrix(1 0 0 .9916 -188 222)" overflow="visible" id="_Group_3"/></g><g id="_Group_4"><path id="_Path_3" class="st3" d="M-36.8 296.2c0 6.4-5.2 11.5-11.6 11.5-3.8 0-7.3-1.9-9.5-5-.5-.7-.5-1.1.4-1.4h.1c.6-.5 1.3-.8 2-1 .8 0 1 1 1.5 1.4 3 3.1 8 3.1 11.1.1 3.1-3 3.1-8 .1-11.1-1.5-1.6-3.7-2.4-5.9-2.3-1.6 0-3.2.6-4.5 1.6-.6.5-.8.3-1.1-.3-1.8-3.2-3.7-6.4-5.5-9.5-.3-.6-.8-1-1.4-1-2.3-.3-3.9-2.3-3.6-4.6 0-.2.1-.4.1-.6.5-2.2 2.8-3.6 5-3.1s3.6 2.8 3.1 5c-.1.3-.1.5-.3.7-.2.4-.2 1 .1 1.4 1.3 2.2 2.6 4.3 3.8 6.5.2.5.8.8 1.3.6h.1c6.1-1.8 12.5 1.7 14.3 7.8.1.5.3 1 .3 1.5.1.7.1 1.2.1 1.8z"/><path id="_Path_4" class="st4" d="M-62.8 282.6c-2 3.5-4 6.9-6 10.3-.4.5-.4 1.2-.2 1.8.9 2.1-.1 4.5-2.3 5.4-.1.1-.3.1-.4.1-2.2.7-4.6-.6-5.3-2.9v-.1c-.6-2.2.8-4.5 3-5.1.2 0 .3-.1.5-.1.6 0 1.1-.4 1.4-.9 1.2-2.1 2.3-4.2 3.6-6.2.4-.5.4-1.3-.1-1.7l-.1-.1c-3.1-2.9-4.3-7.4-2.9-11.4 1.8-6.1 8.2-9.5 14.3-7.7 2.2.7 4.2 2 5.7 3.9 2.9 3.7 3.3 7.8 1.4 12.1-.3.7-.6.7-1.2.3-.8-.3-1.5-.8-2.1-1.3-.6-.7.4-1.4.5-2.2.8-3-.4-6.1-2.8-8-2.3-2-5.6-2.3-8.2-.9-2.8 1.3-4.5 4.1-4.3 7.2 0 3.1 1.8 5.8 4.7 7 .2.2.5.3.8.5z"/><path id="_Path_5" class="st3" d="M-74.5 307.6c-6.3-.9-10.6-6.8-9.7-13.1.8-5.3 5.1-9.3 10.4-9.8.8-.1 1 .1 1 .9s.2 1.8-.1 2.5-1.4.4-2.1.6c-4.2 1.3-6.5 5.6-5.2 9.8 1.1 3.6 4.5 5.9 8.2 5.6 4.3-.4 7.4-4.2 7-8.5-.1-1 .1-1.2 1-1.1 3.6.1 7.3 0 10.9 0 .6.1 1.1-.2 1.4-.7 1.3-1.8 3.9-2.2 5.7-.9.2.1.3.2.4.4 1.7 1.6 1.7 4.2.2 5.9l-.2.2c-1.6 1.6-4.2 1.6-5.8 0-.1-.1-.3-.3-.4-.5-.3-.5-.9-.8-1.5-.7h-7.4c-.5-.1-1 .2-1.1.7v.2c-1 4.5-4.7 8-9.3 8.7-1-.6-2.2-.6-3.4-.2z"/><path id="_Path_6" class="st5" d="M-74.5 307.6c1.1-.3 2.3-.3 3.4 0-1.1.2-2.2.2-3.4 0z"/></g><g id="_Group_5"><circle id="_Path_7" class="st6" cx="-119" cy="246.7" r="8.5"/></g><image width="88" height="89" xlink:href="89653243.png" transform="matrix(1 0 0 .9888 -163 203)" overflow="visible" id="_Group_6" class="st7"/><g id="_Group_7"><circle id="_Path_8" class="st6" cx="-105.3" cy="268.7" r="6.5"/></g><image width="86" height="87" xlink:href="8965324C.png" transform="matrix(1 0 0 .9885 -148 226)" overflow="visible" id="_Group_8" class="st8"/><g id="_Group_9"><circle id="_Path_9" class="st6" cx="-89.8" cy="232.7" r="4.4"/></g><image width="80" height="81" xlink:href="8965324E.png" transform="matrix(1 0 0 .9877 -130 193)" overflow="visible" id="_Group_10"/><g id="_Group_11"><circle id="_Path_10" class="st6" cx="-139.2" cy="232.7" r="3.4"/></g><image width="79" height="80" xlink:href="89653242.png" transform="matrix(1 0 0 .9875 -178 193)" overflow="visible" id="_Group_12" class="st9"/><g id="_Group_13"><path id="_Path_11" transform="rotate(155.08 -102.602 238.83)" class="st4" d="M-111.6 238.1h17.9v1.5h-17.9z"/></g><g id="_Group_14"><path id="_Path_12" transform="rotate(125.179 -131.715 238.178)" class="st4" d="M-132.5 232.4h1.5v11.4h-1.5z"/></g><g id="_Group_15"><path id="_Path_13" transform="rotate(147.451 -112.122 258.838)" class="st4" d="M-112.9 254.2h1.5v9.3h-1.5z"/></g></g></svg>