<svg id="Layer_1" xmlns="http://www.w3.org/2000/svg" viewBox="-191 262.9 175.1 36.1"><style>.st0{fill:#fff}</style><title>Batchly</title><path id="onscroll-red_5_" class="st0 onscroll-red" d="M-124.1 292.2v-19.4h-2.1V270h5.6v9.3c1.1-.6 2.4-1 3.7-.9 3.8 0 6.1 2.6 6.1 6.9 0 5-3.1 7.4-8.3 7.4-1.7 0-3.4-.2-5-.5zm9.6-6.9c0-2.2-.8-4.3-3.3-4.3-1 0-1.9.3-2.8.8v8.2c.4 0 .8.1 1.3.1 3.3 0 4.8-1.7 4.8-4.8z"/><path id="onscroll-red_4_" class="st0 onscroll-red" d="M-108.6 288.6c0-3.3 2.8-4.2 6.3-4.2h2.2v-.9c0-1.6-.7-2.4-2.9-2.4-1.5 0-3 .3-4.5.7v-2.7c1.7-.5 3.5-.7 5.3-.8 3.7 0 5.7 1.3 5.7 5v6.2h2v2.8h-5.4v-1.5c-1.1 1.2-2.7 1.9-4.3 1.9-2.5 0-4.4-1.4-4.4-4.1zm8.6.1v-2.2h-2.1c-1.9 0-2.9.5-2.9 1.9-.1.9.6 1.8 1.6 1.8h.4c1.1 0 2.2-.6 3-1.5z"/><path id="onscroll-red_3_" class="st0 onscroll-red" d="M-90.9 288.6v-7.1h-2.4v-2.8h2.4v-3.5h3.6v3.5h3.7v2.8h-3.7v6.9c0 1.3.8 1.5 1.8 1.5.7 0 1.4-.1 2.1-.3v2.6c-1.1.3-2.2.5-3.3.5-3.3 0-4.2-1.6-4.2-4.1z"/><path id="onscroll-red_2_" class="st0 onscroll-red" d="M-81.3 285.6c0-4.8 2.9-7.2 7.2-7.2 1.7 0 3.3.3 4.9.9v4.6h-3v-2.6c-.5-.1-1-.2-1.6-.2-2.6 0-3.9 1.7-3.9 4.4s1.2 4.5 4 4.5c1.5-.1 3-.5 4.3-1.2v2.8c-1.5.8-3.2 1.2-4.8 1.1-4.4 0-7.1-2.5-7.1-7.1z"/><path id="onscroll-red_1_" class="st0 onscroll-red" d="M-66.9 289.6h2.1v-16.7h-2.1v-2.8h5.6v10.3c1.4-1.2 3.1-1.9 4.9-2 2.5 0 4.1 1.4 4.1 4.2v7h2.1v2.8h-7.7v-2.8h2.1V283c.2-.8-.3-1.6-1.1-1.8h-.5c-1.4.1-2.7.7-3.8 1.6v6.8h2.1v2.8h-7.7l-.1-2.8z"/><path class="st0" d="M-47.7 290.5c0-1.2 1-2.2 2.2-2.2s2.2 1 2.2 2.2c0 1.2-1 2.2-2.2 2.2-1.2 0-2.2-1-2.2-2.2z"/><path id="onscroll-red_7_" class="st0 onscroll-red" d="M-40.8 289.6h2.1v-16.7h-2.1v-2.8h5.6v19.5h2.1v2.8h-7.7v-2.8z"/><path id="onscroll-red_6_" class="st0 onscroll-red" d="M-30.6 298l1-2.4c.7.4 1.5.7 2.3.7 1 .1 1.9-.6 2.1-1.6l.7-2.3h-2.6l-3.1-10.9h-1.6v-2.8h7.1v2.8h-1.8l2.6 9.6 3.1-9.6h-1.9v-2.8h6.9v2.7h-1.5l-4.5 13.6c-.8 2.5-2.2 3.9-4.7 3.9-1.6.1-2.9-.3-4.1-.9z"/><path id="onscroll-gray" class="st0 onscroll-gray" d="M-139.3 279.4l-1.7-.1c-.4-1.9-1.1-3.7-2.2-5.3l1.1-1.3c.1-.1.1-.3 0-.4l-3.5-3.5c-.1-.1-.3-.1-.4 0l-1.3 1.1c-1.6-1-3.4-1.7-5.2-2.1l-.1-1.8c0-.2-.2-.3-.3-.3h-4.9c-.2 0-.3.1-.3.3l-.1 1.7c-.7.1-1.4.3-2 .5l-2.8 1.4.2.3 1.3 2.1 2.4-.8c3.5-1.2 7.4-.6 10.5 1.5 6 3.8 6.3 13.6 1 18.2-1.3 1.1-2.9 1.9-4.5 2.3.2-.1.3-.1.5-.1.9 0 1.7.7 1.7 1.6 0 .7-.4 1.3-1 1.5 1.4-.4 2.8-1.1 4-1.9l1.2 1c.1.1.3.1.4 0l3.5-3.5c.1-.1.1-.3 0-.4l-1-1.2c1.1-1.6 1.8-3.4 2.2-5.3l1.6-.1c.2 0 .3-.2.3-.3v-4.9c-.3 0-.4-.2-.6-.2z"/><path id="onscroll-gray_4_" class="st0 onscroll-gray" d="M-153.4 294.4c.5 0 1-.4 1.1-.9v-.1c-.5.1-.9.5-1.1 1z"/><path id="onscroll-gray_3_" class="st0 onscroll-gray" d="M-160.3 268.3c-1 .4-1.9.9-2.8 1.4l2.8-1.4z"/><path id="onscroll-gray_2_" class="st0 onscroll-gray" d="M-151.1 296.4l-.4.1c.1 0 .2 0 .4-.1z"/><path id="onscroll-gray_1_" class="st0 onscroll-gray" d="M-150.2 294.9c0-.9-.7-1.6-1.7-1.6-.9 0-1.6.7-1.6 1.6s.7 1.6 1.6 1.6h.3l.4-.1c.7-.3 1-.9 1-1.5z"/><path id="onscroll-red" class="st0 onscroll-red" d="M-158.8 293.9h-18.1c-2.3 0-4.9.3-7-.8-1.7-.9-3-2.4-3.6-4.1-1.3-3.8.8-7.9 4.6-9.2.5-.2 1-.3 1.5-.3l3.3-.3c-.5-3.2-1-6.5 1-9.3 1.6-2.3 4.2-3.6 6.9-3.6 2.8 0 5.4 1.4 7 3.7.9-.6 1.8-1.1 2.8-1.5-3.4-5.5-10.5-7.1-16-3.8-3.9 2.4-6 6.9-5.4 11.5-5.7.6-9.9 5.8-9.2 11.5.6 5.3 5 9.3 10.3 9.3h21.3c.5.1 1-.1 1.4-.3.7-.5.8-1.5.3-2.2l-.3-.3c-.1-.2-.5-.3-.8-.3z"/></svg>