<svg xmlns="http://www.w3.org/2000/svg" viewBox="0 0 136.81 30.01"><defs><style>.cls-1{fill:#fff;}</style></defs><title>cmpute-batchly-white</title><g id="Layer_2" data-name="Layer 2"><g id="Layer_1-2" data-name="Layer 1"><g id="_Group_" data-name="&lt;Group&gt;"><g id="_Group_2" data-name="&lt;Group&gt;"><path id="_Path_" data-name="&lt;Path&gt;" class="cls-1" d="M32.32,16.88l-1-.08a9.17,9.17,0,0,0-1.39-3.29l.68-.8a.2.2,0,0,0,0-.28l-2.16-2.16a.2.2,0,0,0-.28,0l-.82.7a9.17,9.17,0,0,0-3.27-1.34L24,8.54a.2.2,0,0,0-.2-.19H20.72a.2.2,0,0,0-.2.19l-.08,1.06a7,7,0,0,0-1.25.32h0l-1.78.9.11.16.83,1.33,1.48-.51a7.36,7.36,0,0,1,6.55.93c3.73,2.37,3.91,8.51.64,11.38a7.17,7.17,0,0,1-2.82,1.46h0a1,1,0,0,1,.31-.05,1,1,0,0,1,.42,2,9.18,9.18,0,0,0,2.48-1.18l.74.63a.2.2,0,0,0,.28,0l2.16-2.16a.2.2,0,0,0,0-.28L30,23.76a9.17,9.17,0,0,0,1.37-3.34l1-.08a.2.2,0,0,0,.19-.2V17.09A.2.2,0,0,0,32.32,16.88Z"/><path id="_Path_2" data-name="&lt;Path&gt;" class="cls-1" d="M23.53,26.22a.67.67,0,0,0,.67-.59.45.45,0,0,0,0-.06A1,1,0,0,0,23.53,26.22Z"/></g><path id="_Path_3" data-name="&lt;Path&gt;" class="cls-1" d="M19.19,9.94h0a9.36,9.36,0,0,0-1.78.9Z"/><path id="_Path_4" data-name="&lt;Path&gt;" class="cls-1" d="M24.93,27.5l-.26.08A1,1,0,0,0,24.93,27.5Z"/><path id="_Path_5" data-name="&lt;Path&gt;" class="cls-1" d="M25.54,26.56a1,1,0,1,0-1,1l.16,0,.26-.08A1,1,0,0,0,25.54,26.56Z"/><path id="_Path_6" data-name="&lt;Path&gt;" class="cls-1" d="M20.16,25.89h-3c-2.56,0-5.75,0-8.31,0-1.46,0-3,.2-4.38-.49a4.58,4.58,0,0,1-2.23-2.6A4.54,4.54,0,0,1,6,16.8l2.05-.21c-.29-2-.65-4,.61-5.83A5.33,5.33,0,0,1,13,8.51a5.26,5.26,0,0,1,4.37,2.32,9.36,9.36,0,0,1,1.78-.9A7.26,7.26,0,0,0,5.85,14.83a6.52,6.52,0,0,0,.67,13H19.83a1.34,1.34,0,0,0,.89-.21,1,1,0,0,0,0-1.52A1,1,0,0,0,20.16,25.89Z"/></g><path class="cls-1" d="M39.79,10.21c0-3.54,2.18-5.36,5.36-5.36a11.16,11.16,0,0,1,3.65.68V8.95h-2.2V7a4.86,4.86,0,0,0-1.17-.14c-1.94,0-2.91,1.24-2.91,3.28s.91,3.33,3,3.33a7.14,7.14,0,0,0,3.19-.89v2.09a7.6,7.6,0,0,1-3.61.84C41.8,15.49,39.79,13.63,39.79,10.21Z"/><path class="cls-1" d="M50.36,13.19h1.36v-6H50.36v-2h3.8V6.28A4.9,4.9,0,0,1,57.5,4.85a2.53,2.53,0,0,1,2.58,1.52,5.12,5.12,0,0,1,3.47-1.52c1.76,0,2.86,1,2.86,3.09v5.25h1.38v2H62.42v-2H63.8V8.11c0-.84-.3-1.24-1.17-1.24a3.59,3.59,0,0,0-2.27.94v5.39h1.38v2H56.38v-2h1.38V8.11c0-.84-.3-1.24-1.17-1.24a3.58,3.58,0,0,0-2.27,1v5.34H55.7v2H50.36Z"/><path class="cls-1" d="M68.84,17.8h1.55V7.17H68.84V5.11h4v1.1A4,4,0,0,1,76,4.85c2.74,0,4.5,2.09,4.5,5.25s-1.85,5.39-4.76,5.39a4.52,4.52,0,0,1-2.67-.8V17.8h1.85v2.09h-6ZM73,7.73v5.11a3,3,0,0,0,2,.63c1.85,0,2.74-1.29,2.74-3.28,0-1.78-.73-3.33-2.55-3.33A3.12,3.12,0,0,0,73,7.73Z"/><path class="cls-1" d="M83.09,12.35V7.17H81.52V5.11h4.22v7c0,.84.3,1.31,1.24,1.31a4.89,4.89,0,0,0,2.81-1.15V7.17H88V5.11h4.4v8.06H94v2.06H89.86V14a6,6,0,0,1-3.75,1.5A2.8,2.8,0,0,1,83.09,12.35Z"/><path class="cls-1" d="M96.42,12.44V7.19H94.66V5.11h1.76V2.53h2.65V5.11h2.76V7.19H99.07V12.3c0,1,.56,1.15,1.36,1.15a4.88,4.88,0,0,0,1.57-.26v1.94a9.11,9.11,0,0,1-2.41.35C97.07,15.49,96.42,14.29,96.42,12.44Z"/><path class="cls-1" d="M103.09,10.17c0-3.07,1.76-5.32,5-5.32s4.64,2.25,4.64,5a6.25,6.25,0,0,1-.09,1.12h-6.84a2.71,2.71,0,0,0,3,2.46,6.79,6.79,0,0,0,3.26-.94v2a7.41,7.41,0,0,1-3.65.91C104.85,15.49,103.09,13.24,103.09,10.17Zm2.65-1h4.47c-.09-1.19-.56-2.39-2.11-2.39S105.93,7.9,105.74,9.16Z"/><path class="cls-1" d="M114.25,13.85a1.62,1.62,0,1,1,1.62,1.62A1.62,1.62,0,0,1,114.25,13.85Z"/><path class="cls-1" d="M119.21,13.17h1.55v-6h-1.55V5.11h4.19v8.06H125v2.06h-5.74ZM122,0a1.83,1.83,0,1,1-1.83,1.83A1.83,1.83,0,0,1,122,0Z"/><path class="cls-1" d="M126.13,10.17a5.34,5.34,0,0,1,10.68,0,5.34,5.34,0,0,1-10.68,0Zm7.94,0c0-1.85-.8-3.33-2.6-3.33s-2.6,1.48-2.6,3.33.8,3.33,2.6,3.33S134.07,12,134.07,10.17Z"/><path class="cls-1" d="M48.73,20.46a22.88,22.88,0,0,0-1.48,2.22,9.46,9.46,0,0,0-.88,2.5,7.88,7.88,0,0,0-.16,2.62,13.19,13.19,0,0,0,.53,2.11h-.6q-.48-1.13-.59-1.44a5.55,5.55,0,0,1-.2-.85,6.25,6.25,0,0,1-.05-1.56,7.67,7.67,0,0,1,.12-.82,8.18,8.18,0,0,1,1-2.6,20.62,20.62,0,0,1,1.68-2.17Z"/><path class="cls-1" d="M50.08,20.93a1.65,1.65,0,0,1,1.3-.45h.37l-.17.81h-.31a.57.57,0,0,0-.53.21,4.69,4.69,0,0,0-.31,1.07h.88l-.15.7h-.89l-1,4.57h-.88l1-4.57h-.74l.15-.7h.74l.18-.83A1.94,1.94,0,0,1,50.08,20.93Z"/><path class="cls-1" d="M56.16,25.08a4.26,4.26,0,0,1-1.07,2.12A2.79,2.79,0,0,1,53,28a1.74,1.74,0,0,1-1.58-.74,2.57,2.57,0,0,1-.22-2,4,4,0,0,1,1.13-2.13,2.81,2.81,0,0,1,2-.79,1.94,1.94,0,0,1,1.58.68A2.31,2.31,0,0,1,56.16,25.08Zm-.93,0a2.49,2.49,0,0,0,0-1.21,1,1,0,0,0-1.14-.73,1.61,1.61,0,0,0-1.32.62,3.53,3.53,0,0,0-.69,1.5,2.29,2.29,0,0,0,.07,1.41,1,1,0,0,0,1.06.56,1.56,1.56,0,0,0,1.36-.67A4,4,0,0,0,55.23,25.11Z"/><path class="cls-1" d="M57.79,22.55h.85l-.19.91a2.71,2.71,0,0,1,.64-.65,1.62,1.62,0,0,1,1-.38h.08l.2,0-.2.94-.14,0H59.9a1.56,1.56,0,0,0-1.12.43,1.93,1.93,0,0,0-.58,1l-.64,3h-.89Z"/><path class="cls-1" d="M61.13,22.55H62l-.16.75a4.16,4.16,0,0,1,.69-.57,2,2,0,0,1,1.06-.3,1.32,1.32,0,0,1,1,.31,1.23,1.23,0,0,1,.28.52,2.66,2.66,0,0,1,.83-.63,2.21,2.21,0,0,1,.94-.21q1.07,0,1.29.77a2.4,2.4,0,0,1,0,1.12l-.75,3.52h-.92L67,24.16q.11-.53-.11-.73a.87.87,0,0,0-.6-.2,1.56,1.56,0,0,0-1,.35,1.92,1.92,0,0,0-.63,1.17L64,27.84h-.9l.73-3.46a1.75,1.75,0,0,0,0-.79q-.12-.37-.68-.37a1.62,1.62,0,0,0-1,.39A2.37,2.37,0,0,0,61.49,25l-.59,2.81H60Z"/><path class="cls-1" d="M73.49,23.38a2,2,0,0,1,.16.93,5.87,5.87,0,0,1-.17,1.17H69.6a2,2,0,0,0,.11,1.29,1,1,0,0,0,1,.49,1.74,1.74,0,0,0,1.21-.46,2,2,0,0,0,.47-.62h.87a2.4,2.4,0,0,1-.37.65,3.08,3.08,0,0,1-.56.59,2.66,2.66,0,0,1-1.12.53,3.3,3.3,0,0,1-.75.08,1.78,1.78,0,0,1-1.52-.72,2.43,2.43,0,0,1-.26-2,3.82,3.82,0,0,1,1.13-2.07,2.83,2.83,0,0,1,2-.8,2.1,2.1,0,0,1,1,.26A1.45,1.45,0,0,1,73.49,23.38Zm-.78,1.39a2.08,2.08,0,0,0-.05-.92,1,1,0,0,0-1.08-.64,1.67,1.67,0,0,0-1.12.44,2.15,2.15,0,0,0-.68,1.12Z"/><path class="cls-1" d="M75.22,22.55h.85l-.19.91a2.71,2.71,0,0,1,.64-.65,1.62,1.62,0,0,1,1-.38h.08l.2,0-.2.94-.14,0h-.14a1.56,1.56,0,0,0-1.12.43,1.93,1.93,0,0,0-.58,1l-.64,3H74.1Z"/><path class="cls-1" d="M79,20.58h.89l-1.54,7.26h-.89Z"/><path class="cls-1" d="M84.12,22.55h1l-1.33,2.32Q83,26.24,82.49,27.1a19.92,19.92,0,0,1-1.62,2.47A1.53,1.53,0,0,1,79.7,30h-.29l-.24-.05.17-.81.32.08h.18a.73.73,0,0,0,.38-.08,1,1,0,0,0,.24-.2l.26-.41.34-.54-.8-5.45h1l.5,4.31Z"/><path class="cls-1" d="M89,20.56h.87l-.56,2.63a2.66,2.66,0,0,1,.82-.58,2.24,2.24,0,0,1,.92-.2,1.66,1.66,0,0,1,1.46.68,2.55,2.55,0,0,1,.19,2,4.25,4.25,0,0,1-1.05,2.09,2.48,2.48,0,0,1-1.86.83,1.45,1.45,0,0,1-1-.29,1.75,1.75,0,0,1-.41-.55l-.14.68H87.5Zm2.78,4.58a2.25,2.25,0,0,0-.06-1.38.93.93,0,0,0-.94-.55,1.82,1.82,0,0,0-1.16.45,2.51,2.51,0,0,0-.77,1.48,3.17,3.17,0,0,0-.07,1.21,1,1,0,0,0,1.12.87,1.5,1.5,0,0,0,1.2-.57A3.45,3.45,0,0,0,91.82,25.14Z"/><path class="cls-1" d="M96.71,24.63a.64.64,0,0,0,.47-.26.9.9,0,0,0,.13-.34.59.59,0,0,0-.18-.66,1.52,1.52,0,0,0-.88-.21,1.43,1.43,0,0,0-1.07.38,1.53,1.53,0,0,0-.34.62H94a2,2,0,0,1,.92-1.36,3,3,0,0,1,1.5-.38,2.47,2.47,0,0,1,1.44.36,1,1,0,0,1,.35,1.11l-.65,3a.37.37,0,0,0,0,.22q0,.08.22.08h.14l.17,0-.14.66-.33.07h-.3a.58.58,0,0,1-.6-.33,1.07,1.07,0,0,1,0-.49,3.11,3.11,0,0,1-.91.62,2.76,2.76,0,0,1-1.18.26,1.36,1.36,0,0,1-1.11-.45,1.25,1.25,0,0,1-.23-1.12,1.85,1.85,0,0,1,.7-1.14,2.71,2.71,0,0,1,1.31-.5Zm-1.76,2.63a2.35,2.35,0,0,0,1-.22,1.62,1.62,0,0,0,1-1.18l.15-.72a1.85,1.85,0,0,1-.45.17,4,4,0,0,1-.52.1l-.55.07a2.43,2.43,0,0,0-.77.2,1,1,0,0,0-.57.74.6.6,0,0,0,.15.61A.87.87,0,0,0,94.95,27.26Z"/><path class="cls-1" d="M100.44,21.07h.9L101,22.55h.85l-.15.73h-.85l-.74,3.46q-.06.28.11.37a.73.73,0,0,0,.34.05h.32l-.15.7-.33.06-.36,0q-.62,0-.78-.32a1.27,1.27,0,0,1,0-.83l.75-3.5h-.72l.15-.73h.72Z"/><path class="cls-1" d="M106.56,24.33h-.87a1.33,1.33,0,0,0-.19-.81.93.93,0,0,0-.84-.32,1.62,1.62,0,0,0-1.39.83,3.91,3.91,0,0,0-.52,1.33,2.26,2.26,0,0,0,0,1.34.91.91,0,0,0,.94.54,1.41,1.41,0,0,0,.95-.34,2.43,2.43,0,0,0,.64-.93h.87a3,3,0,0,1-1.07,1.54,2.76,2.76,0,0,1-1.62.49,1.61,1.61,0,0,1-1.5-.76,2.54,2.54,0,0,1-.21-1.9,4,4,0,0,1,1.14-2.17,2.72,2.72,0,0,1,1.89-.78,1.93,1.93,0,0,1,1.36.43A1.73,1.73,0,0,1,106.56,24.33Z"/><path class="cls-1" d="M108.25,20.56h.89l-.58,2.71a3.6,3.6,0,0,1,.69-.56,2.23,2.23,0,0,1,1.13-.28q1.15,0,1.39.81a2.63,2.63,0,0,1,0,1.22l-.72,3.4h-.91l.71-3.34a1.8,1.8,0,0,0,0-.86q-.15-.43-.82-.43a1.84,1.84,0,0,0-1.08.38,2.3,2.3,0,0,0-.76,1.44l-.59,2.81h-.89Z"/><path class="cls-1" d="M112.77,26.76h1l-.23,1.08h-1Z"/><path class="cls-1" d="M116.71,20.58h.89l-1.54,7.26h-.89Z"/><path class="cls-1" d="M121.82,22.55h1l-1.33,2.32q-.77,1.36-1.28,2.22a19.92,19.92,0,0,1-1.62,2.47,1.53,1.53,0,0,1-1.18.44h-.29l-.24-.05.17-.81.32.08h.18a.73.73,0,0,0,.38-.08,1,1,0,0,0,.24-.2l.26-.41.34-.54-.8-5.45h1l.5,4.31Z"/><path class="cls-1" d="M121.72,29.91a22.94,22.94,0,0,0,1.48-2.23,9.49,9.49,0,0,0,.87-2.49,7.92,7.92,0,0,0,.15-2.61,12.71,12.71,0,0,0-.52-2.11h.6q.5,1.22.6,1.5a5,5,0,0,1,.18.78,5.78,5.78,0,0,1,.08,1.22,7.13,7.13,0,0,1-.15,1.16,8.17,8.17,0,0,1-1,2.61,19.5,19.5,0,0,1-1.67,2.17Z"/></g></g></svg>