<svg id="Layer_1" xmlns="http://www.w3.org/2000/svg" viewBox="-265 264.4 28 32.6"><style>.st0{fill:#657cad}</style><title>Vector Smart Object11</title><path class="st0" d="M-250.8 296c1.6-.1 2.8-1.4 2.7-2.9v-.1h-5.9c0 1.7 1.3 3 3 3h.2zm12.1-6.8c-.6-.5-1.1-1.1-1.6-1.6-.5-.4-.8-1.1-.8-1.8v-7.3c.1-4.4-2.7-8.3-6.9-9.6-.5-.1-.9-.6-.8-1.1.1-1.2-.8-2.3-2.1-2.4-1.2-.1-2.3.8-2.4 2.1v.3c.1.6-.4 1.2-1 1.3-3.6 1.1-6.2 4.3-6.5 8.1-.3 2.2-.3 4.3-.1 6.5.4 2.2-.6 4.3-2.4 5.6-.7.5-1 1.4-.6 2.2h25.9c.2-1 0-1.8-.7-2.3z"/></svg>