<svg xmlns="http://www.w3.org/2000/svg" viewBox="0 0 405.44 88.94"><defs><style>.cls-1{fill:#676767;}.cls-2{fill:#ef3733;}.cls-3{fill:#ed1c24;}.cls-4{fill:#58595b;}</style></defs><title>Asset 7</title><g id="Layer_2" data-name="Layer 2"><g id="Layer_1-2" data-name="Layer 1"><g id="_Group_" data-name="&lt;Group&gt;"><g id="_Group_2" data-name="&lt;Group&gt;"><path id="_Path_" data-name="&lt;Path&gt;" class="cls-1" d="M95.77,50l-3-.24A27.18,27.18,0,0,0,88.63,40l2-2.37a.6.6,0,0,0,0-.82l-6.4-6.4a.6.6,0,0,0-.82,0L81,32.5a27.16,27.16,0,0,0-9.68-4l-.25-3.21a.6.6,0,0,0-.6-.55h-9a.6.6,0,0,0-.6.55l-.25,3.15a20.7,20.7,0,0,0-3.71,1l0,0L51.59,32.1c.1.15.21.3.31.46l2.47,3.94L58.77,35c6.8-2.33,13.38-1.08,19.41,2.75,11,7,11.59,25.22,1.89,33.71a21.26,21.26,0,0,1-8.36,4.32h0a3,3,0,0,1,.92-.16,3.06,3.06,0,0,1,1.25,5.86A27.21,27.21,0,0,0,81.22,78l2.19,1.87a.6.6,0,0,0,.82,0l6.4-6.4a.6.6,0,0,0,0-.82l-1.89-2.22a27.16,27.16,0,0,0,4-9.91l3-.23a.6.6,0,0,0,.55-.6v-9A.6.6,0,0,0,95.77,50Z"/><path id="_Path_2" data-name="&lt;Path&gt;" class="cls-1" d="M69.74,77.69a2,2,0,0,0,2-1.74,1.34,1.34,0,0,0,0-.16A3.05,3.05,0,0,0,69.74,77.69Z"/></g><path id="_Path_3" data-name="&lt;Path&gt;" class="cls-1" d="M56.87,29.44l0,0a27.74,27.74,0,0,0-5.26,2.68Z"/><path id="_Path_4" data-name="&lt;Path&gt;" class="cls-1" d="M73.88,81.5l-.77.22A3,3,0,0,0,73.88,81.5Z"/><path id="_Path_5" data-name="&lt;Path&gt;" class="cls-1" d="M75.69,78.7a3.14,3.14,0,1,0-2.59,3l.77-.22A3.06,3.06,0,0,0,75.69,78.7Z"/><path id="_Path_6" data-name="&lt;Path&gt;" class="cls-2" d="M59.75,76.73a9.77,9.77,0,0,0-1,0l-8,0c-7.58,0-17,0-24.61-.09-4.34,0-9,.6-13-1.45a13.59,13.59,0,0,1-6.6-7.7A13.45,13.45,0,0,1,17.92,49.8L24,49.18c-.86-6-1.92-12,1.8-17.27a15.78,15.78,0,0,1,12.83-6.69,15.58,15.58,0,0,1,13,6.89,27.74,27.74,0,0,1,5.26-2.68A21.52,21.52,0,0,0,17.33,44a19.32,19.32,0,0,0,2,38.53H51.09c1.58,0,3.15,0,4.73,0,1,0,2.22,0,2.94,0a4,4,0,0,0,2.64-.63,2.86,2.86,0,0,0,0-4.51A3.09,3.09,0,0,0,59.75,76.73Z"/></g><path class="cls-2" d="M117.92,30.27c0-10.48,6.46-15.9,15.9-15.9a33.07,33.07,0,0,1,10.83,2V26.52h-6.53V20.69a14.41,14.41,0,0,0-3.47-.42C128.89,20.27,126,24,126,30s2.71,9.86,8.89,9.86a21.16,21.16,0,0,0,9.44-2.64v6.18a22.52,22.52,0,0,1-10.69,2.5C123.89,45.89,117.92,40.41,117.92,30.27Z"/><path class="cls-2" d="M149.23,39.09h4V21.18h-4v-6h11.25v3.47c2.64-2.36,5.76-4.24,9.93-4.24,3.68,0,6.39,1.46,7.64,4.51,2.78-2.43,5.9-4.51,10.28-4.51,5.21,0,8.47,3,8.47,9.17V39.09h4.1v6H185v-6h4.1V24c0-2.5-.9-3.68-3.47-3.68a10.64,10.64,0,0,0-6.73,2.78v16H183v6h-15.9v-6h4.1V24c0-2.5-.9-3.68-3.47-3.68s-4.51,1.11-6.73,2.92V39.09h4.1v6H149.23Z"/><path class="cls-2" d="M204,52.76h4.58V21.25H204V15.13h11.87V18.4a11.93,11.93,0,0,1,9.23-4c8.12,0,13.33,6.18,13.33,15.55,0,9.65-5.49,16-14.09,16a13.38,13.38,0,0,1-7.92-2.36v9.23h5.48v6.18H204Zm12.43-29.85V38a8.89,8.89,0,0,0,5.83,1.88c5.48,0,8.12-3.82,8.12-9.72,0-5.28-2.15-9.86-7.57-9.86A9.25,9.25,0,0,0,216.44,22.91Z"/><path class="cls-1" d="M246.23,36.59V21.25h-4.65V15.13h12.5V35.82c0,2.5.9,3.89,3.68,3.89,3,0,6-1.6,8.33-3.4V21.25h-5.21V15.13h13.05V39h4.58v6.11H266.3V41.45c-2.92,2.36-6.6,4.44-11.11,4.44C249.7,45.89,246.23,42.77,246.23,36.59Z"/><path class="cls-1" d="M285.74,36.87V21.31h-5.21V15.13h5.21V7.5h7.85v7.64h8.19v6.18h-8.19V36.45c0,2.85,1.67,3.4,4,3.4a14.46,14.46,0,0,0,4.65-.76v5.76a27,27,0,0,1-7.15,1C287.68,45.89,285.74,42.35,285.74,36.87Z"/><path class="cls-1" d="M305.53,30.13c0-9.1,5.21-15.76,14.72-15.76S334,21,334,29.3a18.52,18.52,0,0,1-.28,3.33H313.44c.76,4.72,3.61,7.29,9,7.29a20.12,20.12,0,0,0,9.65-2.78v6a22,22,0,0,1-10.83,2.71C310.73,45.89,305.53,39.23,305.53,30.13Zm7.85-3h13.26c-.28-3.54-1.67-7.08-6.25-7.08S313.93,23.4,313.37,27.15Z"/><path class="cls-3" d="M338.58,41a4.79,4.79,0,1,1,4.79,4.79A4.8,4.8,0,0,1,338.58,41Z"/><path class="cls-1" d="M353.3,39h4.58V21.25H353.3V15.13h12.43V39h4.58v6.11h-17Zm8.12-39A5.42,5.42,0,1,1,356,5.42,5.42,5.42,0,0,1,361.42,0Z"/><path class="cls-1" d="M373.78,30.13c0-9.3,5.69-15.76,15.83-15.76s15.83,6.46,15.83,15.76-5.69,15.76-15.83,15.76S373.78,39.43,373.78,30.13Zm23.54,0c0-5.49-2.36-9.86-7.71-9.86s-7.71,4.37-7.71,9.86S384.26,40,389.61,40,397.32,35.62,397.32,30.13Z"/><path class="cls-4" d="M144.43,60.64A67.81,67.81,0,0,0,140,67.22a28,28,0,0,0-2.61,7.41,23.35,23.35,0,0,0-.47,7.76,39.09,39.09,0,0,0,1.57,6.24h-1.77q-1.44-3.34-1.75-4.26a16.45,16.45,0,0,1-.58-2.5,18.51,18.51,0,0,1-.16-4.63,22.74,22.74,0,0,1,.35-2.43,24.26,24.26,0,0,1,3-7.72,61.11,61.11,0,0,1,5-6.45Z"/><path class="cls-4" d="M148.41,62a4.9,4.9,0,0,1,3.84-1.35h.51l.59,0-.51,2.4-.58,0h-.34a1.68,1.68,0,0,0-1.57.62,13.89,13.89,0,0,0-.91,3.17H152L151.61,69H149L146.1,82.51h-2.61L146.36,69h-2.18l.44-2.08h2.18l.53-2.46A5.75,5.75,0,0,1,148.41,62Z"/><path class="cls-4" d="M166.44,74.34a12.63,12.63,0,0,1-3.18,6.27A8.27,8.27,0,0,1,157,83.08a5.17,5.17,0,0,1-4.67-2.19q-1.44-2.19-.66-5.88a11.73,11.73,0,0,1,3.35-6.3,8.34,8.34,0,0,1,5.89-2.34,5.74,5.74,0,0,1,4.69,2Q167.28,70.41,166.44,74.34Zm-2.77.07a7.39,7.39,0,0,0,.06-3.57q-.66-2.17-3.38-2.17a4.77,4.77,0,0,0-3.9,1.85,10.45,10.45,0,0,0-2,4.45,6.79,6.79,0,0,0,.21,4.17q.74,1.67,3.13,1.67a4.62,4.62,0,0,0,4-2A11.81,11.81,0,0,0,163.68,74.41Z"/><path class="cls-4" d="M171.25,66.82h2.5l-.57,2.71a8,8,0,0,1,1.91-1.93,4.81,4.81,0,0,1,3-1.14h.25l.59.06-.59,2.78-.42-.06h-.42a4.64,4.64,0,0,0-3.33,1.28,5.73,5.73,0,0,0-1.71,3l-1.9,9h-2.64Z"/><path class="cls-4" d="M181.17,66.82h2.61L183.3,69a12.33,12.33,0,0,1,2.05-1.68,6,6,0,0,1,3.15-.89,3.91,3.91,0,0,1,2.83.92,3.64,3.64,0,0,1,.83,1.55,7.88,7.88,0,0,1,2.47-1.87,6.56,6.56,0,0,1,2.79-.61q3.16,0,3.82,2.29a7.11,7.11,0,0,1-.09,3.31l-2.21,10.44h-2.74l2.31-10.9q.32-1.57-.34-2.15a2.59,2.59,0,0,0-1.79-.59,4.63,4.63,0,0,0-2.89,1,5.7,5.7,0,0,0-1.85,3.47l-1.93,9.13H187l2.17-10.24a5.18,5.18,0,0,0,.12-2.33q-.37-1.1-2-1.1a4.79,4.79,0,0,0-3,1.16,7,7,0,0,0-2.12,4.19l-1.76,8.32h-2.64Z"/><path class="cls-4" d="M217.79,69.28a5.93,5.93,0,0,1,.47,2.77,17.41,17.41,0,0,1-.5,3.46h-11.5a5.92,5.92,0,0,0,.31,3.83,3,3,0,0,0,3,1.44,5.16,5.16,0,0,0,3.57-1.36,6,6,0,0,0,1.39-1.83h2.59A7.13,7.13,0,0,1,216,79.51a9.13,9.13,0,0,1-1.66,1.74A7.9,7.9,0,0,1,211,82.83a9.79,9.79,0,0,1-2.21.23,5.28,5.28,0,0,1-4.51-2.13q-1.58-2.13-.76-6a11.33,11.33,0,0,1,3.35-6.14,8.38,8.38,0,0,1,5.86-2.36,6.21,6.21,0,0,1,3.08.78A4.3,4.3,0,0,1,217.79,69.28Zm-2.3,4.13a6.16,6.16,0,0,0-.16-2.74q-.67-1.9-3.21-1.9a5,5,0,0,0-3.33,1.31,6.38,6.38,0,0,0-2,3.33Z"/><path class="cls-4" d="M222.91,66.82h2.5l-.57,2.71a8,8,0,0,1,1.91-1.93,4.81,4.81,0,0,1,3-1.14H230l.59.06L230,69.33l-.42-.06h-.42a4.64,4.64,0,0,0-3.33,1.28,5.73,5.73,0,0,0-1.71,3l-1.9,9h-2.64Z"/><path class="cls-4" d="M234.15,61h2.64l-4.57,21.52h-2.64Z"/><path class="cls-4" d="M249.3,66.82h2.92q-.88,1.51-3.94,6.88-2.29,4-3.79,6.59a59,59,0,0,1-4.79,7.32,4.53,4.53,0,0,1-3.5,1.32,6.15,6.15,0,0,1-.85,0,5.71,5.71,0,0,1-.7-.16l.51-2.4a7.71,7.71,0,0,0,.94.23,3.74,3.74,0,0,0,.54,0,2.17,2.17,0,0,0,1.13-.24,3,3,0,0,0,.7-.59q.1-.12.78-1.2l1-1.61-2.37-16.14h3l1.49,12.77Z"/><path class="cls-4" d="M263.89,60.92h2.56l-1.66,7.81A7.87,7.87,0,0,1,267.22,67a6.64,6.64,0,0,1,2.73-.59,4.91,4.91,0,0,1,4.33,2q1.4,2,.56,5.94a12.58,12.58,0,0,1-3.12,6.18A7.35,7.35,0,0,1,266.2,83a4.29,4.29,0,0,1-2.83-.86,5.17,5.17,0,0,1-1.22-1.64l-.42,2H259.3Zm8.23,13.58a6.67,6.67,0,0,0-.19-4.1,2.75,2.75,0,0,0-2.78-1.63,5.39,5.39,0,0,0-3.44,1.33,7.43,7.43,0,0,0-2.29,4.39,9.4,9.4,0,0,0-.21,3.59,3,3,0,0,0,3.33,2.59A4.45,4.45,0,0,0,270.1,79,10.24,10.24,0,0,0,272.12,74.5Z"/><path class="cls-4" d="M286.61,73a1.89,1.89,0,0,0,1.39-.76,2.67,2.67,0,0,0,.38-1,1.75,1.75,0,0,0-.54-2,4.5,4.5,0,0,0-2.62-.61,4.25,4.25,0,0,0-3.16,1.11,4.55,4.55,0,0,0-1,1.83h-2.46a5.85,5.85,0,0,1,2.74-4,9,9,0,0,1,4.44-1.14A7.33,7.33,0,0,1,290,67.5a2.92,2.92,0,0,1,1,3.28l-1.92,9a1.08,1.08,0,0,0,0,.66q.11.25.65.25l.4,0,.49-.07-.42,1.95a8.18,8.18,0,0,1-1,.22,7,7,0,0,1-.89,0,1.71,1.71,0,0,1-1.77-1,3.16,3.16,0,0,1-.15-1.45,9.21,9.21,0,0,1-2.71,1.83,8.18,8.18,0,0,1-3.49.78A4,4,0,0,1,277,81.71a3.71,3.71,0,0,1-.68-3.32A5.47,5.47,0,0,1,278.41,75a8,8,0,0,1,3.89-1.48Zm-5.23,7.79a7,7,0,0,0,2.84-.64,4.79,4.79,0,0,0,2.94-3.5l.44-2.12a5.48,5.48,0,0,1-1.35.51,12,12,0,0,1-1.55.29l-1.64.21a7.21,7.21,0,0,0-2.29.6,3.06,3.06,0,0,0-1.68,2.2,1.79,1.79,0,0,0,.45,1.8A2.56,2.56,0,0,0,281.38,80.8Z"/><path class="cls-4" d="M297.67,62.44h2.67l-.94,4.38h2.5L301.44,69h-2.5l-2.18,10.24q-.18.82.32,1.1a2.16,2.16,0,0,0,1,.16h.41l.53,0-.44,2.08a6.68,6.68,0,0,1-1,.19,9.35,9.35,0,0,1-1.08.06q-1.85,0-2.31-.94a3.77,3.77,0,0,1-.14-2.45L296.27,69h-2.12l.45-2.15h2.12Z"/><path class="cls-4" d="M315.79,72.1h-2.56a3.93,3.93,0,0,0-.56-2.41,2.76,2.76,0,0,0-2.48-1,4.8,4.8,0,0,0-4.13,2.46,11.58,11.58,0,0,0-1.54,3.94,6.68,6.68,0,0,0,.15,4,2.7,2.7,0,0,0,2.8,1.61,4.18,4.18,0,0,0,2.81-1,7.22,7.22,0,0,0,1.9-2.75h2.56a9,9,0,0,1-3.16,4.56,8.18,8.18,0,0,1-4.8,1.44,4.77,4.77,0,0,1-4.43-2.25,7.54,7.54,0,0,1-.64-5.62,11.79,11.79,0,0,1,3.38-6.43,8.07,8.07,0,0,1,5.6-2.3,5.71,5.71,0,0,1,4,1.29Q316.11,68.95,315.79,72.1Z"/><path class="cls-4" d="M320.8,60.92h2.64l-1.71,8a10.66,10.66,0,0,1,2.05-1.67,6.6,6.6,0,0,1,3.35-.83q3.41,0,4.12,2.39a7.79,7.79,0,0,1-.1,3.62L329,82.51h-2.71l2.09-9.89a5.32,5.32,0,0,0,.1-2.53q-.45-1.29-2.43-1.29a5.44,5.44,0,0,0-3.21,1.13q-1.57,1.13-2.24,4.26l-1.76,8.32h-2.64Z"/><path class="cls-4" d="M334.2,79.32h3.06l-.67,3.19h-3.06Z"/><path class="cls-4" d="M345.87,61h2.64l-4.57,21.52H341.3Z"/><path class="cls-4" d="M361,66.82h2.92q-.88,1.51-3.94,6.88-2.29,4-3.79,6.59a59,59,0,0,1-4.79,7.32,4.53,4.53,0,0,1-3.5,1.32,6.15,6.15,0,0,1-.85,0,5.71,5.71,0,0,1-.7-.16l.51-2.4a7.71,7.71,0,0,0,.94.23,3.74,3.74,0,0,0,.54,0,2.17,2.17,0,0,0,1.13-.24,3,3,0,0,0,.7-.59q.1-.12.78-1.2L352,83l-2.37-16.14h3l1.49,12.77Z"/><path class="cls-4" d="M360.71,88.63A68,68,0,0,0,365.11,82a28.11,28.11,0,0,0,2.59-7.38,23.48,23.48,0,0,0,.45-7.75,37.67,37.67,0,0,0-1.55-6.24h1.77q1.49,3.6,1.79,4.45a14.91,14.91,0,0,1,.54,2.32,17.13,17.13,0,0,1,.23,3.62,21.13,21.13,0,0,1-.43,3.44,24.22,24.22,0,0,1-3,7.73,57.8,57.8,0,0,1-5,6.43Z"/></g></g></svg>