<svg id="Layer_1" data-name="Layer 1" xmlns="http://www.w3.org/2000/svg" viewBox="0 0 130.6 26.94"><defs><style>.cls-1{isolation:isolate}.cls-2{fill:#ff2a2a}.cls-3{fill:#666}</style></defs><title>Batchly</title><g class="cls-1"><path class="cls-2" d="M49.89 21.89V7.46h-1.55V5.39h4.21v6.91a5.45 5.45 0 0 1 2.73-.71c2.87 0 4.51 2 4.51 5.13 0 3.76-2.33 5.55-6.18 5.55a20.82 20.82 0 0 1-3.72-.38zm7.19-5.15c0-1.67-.61-3.17-2.47-3.17a4.39 4.39 0 0 0-2.07.56v6.09h.94c2.43.05 3.61-1.15 3.61-3.48zm4.4 2.42c0-2.45 2.09-3.15 4.73-3.15h1.67v-.63c0-1.22-.49-1.76-2.19-1.76a12.8 12.8 0 0 0-3.36.52v-2a14.66 14.66 0 0 1 3.93-.56c2.73 0 4.28 1 4.28 3.74v4.61H72V22h-4v-1.14a4.37 4.37 0 0 1-3.22 1.41 3 3 0 0 1-3.3-3.11zm6.4.12v-1.62h-1.56c-1.39 0-2.19.35-2.19 1.39a1.27 1.27 0 0 0 1.46 1.34 3.17 3.17 0 0 0 2.29-1.11zm6.79-.07v-5.27h-1.76v-2.09h1.76V9.27h2.66v2.59h2.77v2.09h-2.77v5.13c0 1 .56 1.15 1.36 1.15a4.89 4.89 0 0 0 1.58-.23v2a9.14 9.14 0 0 1-2.42.35c-2.52-.08-3.18-1.28-3.18-3.14zM81.84 17c0-3.55 2.19-5.38 5.38-5.38a11.2 11.2 0 0 1 3.67.68v3.43h-2.21v-2a4.88 4.88 0 0 0-1.18-.14c-2 0-2.92 1.25-2.92 3.29s.92 3.34 3 3.34a7.17 7.17 0 0 0 3.2-.89v2.09a7.63 7.63 0 0 1-3.62.85c-3.3 0-5.32-1.86-5.32-5.27zm10.75 2.94h1.55V7.46h-1.55V5.39h4.21v7.66a5.87 5.87 0 0 1 3.69-1.46 2.81 2.81 0 0 1 3 3.15v5.2h1.55V22h-5.73v-2.06h1.55V15a1.1 1.1 0 0 0-1.25-1.32 4.94 4.94 0 0 0-2.82 1.18v5.08h1.55V22h-5.75v-2.06z"/></g><g class="cls-1"><path class="cls-3" d="M106.9 20.62a1.62 1.62 0 1 1 1.62 1.62 1.63 1.63 0 0 1-1.62-1.62z"/><path class="cls-2" d="M112.07 19.93h1.55V7.47h-1.55V5.38h4.21v14.55h1.55V22h-5.76v-2.07zm7.59 6.23l.75-1.76a3.52 3.52 0 0 0 1.72.52 1.5 1.5 0 0 0 1.58-1.18l.54-1.74h-2l-2.35-8.11h-1.2v-2h5.3v2.07h-1.36l1.88 7.15 2.3-7.15h-1.39v-2.11h5.13v2h-1.15L126 24.07c-.61 1.83-1.65 2.87-3.53 2.87a5.69 5.69 0 0 1-2.81-.78z"/></g><path class="cls-3" d="M38.54 12.35l-1.22-.1a10.94 10.94 0 0 0-1.65-3.92l.81-1a.24.24 0 0 0 0-.33l-2.59-2.53a.24.24 0 0 0-.33 0l-1 .83a10.93 10.93 0 0 0-3.9-1.6l-.07-1.3a.24.24 0 0 0-.24-.22h-3.64a.24.24 0 0 0-.24.22l-.1 1.27a8.33 8.33 0 0 0-1.49.38l-2.12 1.08.13.19 1 1.58 1.77-.61a8.77 8.77 0 0 1 7.8 1.11c4.44 2.82 4.66 10.15.76 13.57a8.55 8.55 0 0 1-3.37 1.74 1.22 1.22 0 0 1 .37-.06 1.23 1.23 0 0 1 .5 2.36 11 11 0 0 0 3-1.4l.88.75a.24.24 0 0 0 .33 0l2.57-2.57a.24.24 0 0 0 0-.33l-.76-.89a10.93 10.93 0 0 0 1.63-4l1.19-.09a.24.24 0 0 0 .22-.24v-3.65a.24.24 0 0 0-.24-.24z"/><path class="cls-3" d="M28.07 23.48a.79.79 0 0 0 .8-.7.54.54 0 0 0 0-.07 1.23 1.23 0 0 0-.8.77zM22.88 4.06a11.16 11.16 0 0 0-2.12 1.08zM29.73 25l-.31.09a1.22 1.22 0 0 0 .31-.09z"/><path class="cls-3" d="M30.46 23.88a1.23 1.23 0 1 0-1.23 1.23h.19l.31-.11a1.23 1.23 0 0 0 .73-1.12z"/><path class="cls-2" d="M24 23.09H10.53c-1.74 0-3.64.24-5.23-.58a5.47 5.47 0 0 1-2.66-3.1 5.41 5.41 0 0 1 4.57-7.09L9.66 12c-.35-2.42-.77-4.82.72-7a6.35 6.35 0 0 1 5.16-2.69 6.27 6.27 0 0 1 5.21 2.77A11.16 11.16 0 0 1 22.87 4 8.66 8.66 0 0 0 7 9.9a7.77 7.77 0 0 0 .8 15.5h15.85a1.6 1.6 0 0 0 1.06-.25 1.15 1.15 0 0 0 0-1.82 1.24 1.24 0 0 0-.71-.24z"/></svg>