<svg id="Layer_1" data-name="Layer 1" xmlns="http://www.w3.org/2000/svg" viewBox="0 0 33.43 34.96"><defs><style>.cls-1{fill:#657cad}</style></defs><title>Vector Smart Object11</title><path class="cls-1" d="M16.71 18.82A8.71 8.71 0 1 0 8 10.11a8.72 8.72 0 0 0 8.71 8.71zm1.14-7.35a2.92 2.92 0 0 0-1.11-.62 9 9 0 0 1-1.21-.51 2.47 2.47 0 0 1-1.44-2.29 2.36 2.36 0 0 1 .63-1.69 2.66 2.66 0 0 1 1.7-.79V4.23h1v1.36a2.45 2.45 0 0 1 1.66.91 3.13 3.13 0 0 1 .59 2h-1.5a1.94 1.94 0 0 0-.35-1.23 1.14 1.14 0 0 0-.95-.45 1.29 1.29 0 0 0-.93.32 1.22 1.22 0 0 0-.33.92 1.16 1.16 0 0 0 .33.86 3.22 3.22 0 0 0 1.06.6 9.47 9.47 0 0 1 1.24.54 3.19 3.19 0 0 1 .76.57 2.26 2.26 0 0 1 .48.73 2.56 2.56 0 0 1 .17 1A2.31 2.31 0 0 1 19 14a2.82 2.82 0 0 1-1.79.77V16h-1v-1.2a2.83 2.83 0 0 1-1.88-.88 2.86 2.86 0 0 1-.66-2h1.5a1.71 1.71 0 0 0 .39 1.21 1.44 1.44 0 0 0 1.11.43 1.53 1.53 0 0 0 1.07-.34 1.17 1.17 0 0 0 .37-.9 1.19 1.19 0 0 0-.26-.85zm5.41 8.23l-5.72 2 1.65.58c.42.14.84.28 1.27.4h.18l5.57-2a3.66 3.66 0 0 0-.75-.83 2.46 2.46 0 0 0-2.2-.15zm-.03 5.25l7.23-2.49a2.15 2.15 0 0 0-.58-.79 2.39 2.39 0 0 0-2.32-.31l-5.39 1.85a3.82 3.82 0 0 1 1.06 1.74z"/><path class="cls-1" d="M32.47 24.72a1.86 1.86 0 0 0-1.82-1.1 3.26 3.26 0 0 0-1 .16L23.22 26l-.09.29a2.8 2.8 0 0 1-2.89 1.85 5.47 5.47 0 0 1-.73-.05 27.46 27.46 0 0 0-3-.24 15.92 15.92 0 0 1-4.68-.73.48.48 0 0 1-.29-.24.49.49 0 0 1 .58-.7 15 15 0 0 0 4.43.69 28.68 28.68 0 0 1 3.15.25c1.4.2 2.42-.31 2.6-1.28a1.86 1.86 0 0 0-1.56-2.1 24.86 24.86 0 0 1-4.77-1.79A11.27 11.27 0 0 0 11 20.51c-1.53 0-3.29.94-5.51 2.14L1.2 24.82l3.23 6a11.41 11.41 0 0 1 3-1.16c.67 0 1.66.53 3.35 1.46 1.89 1 4.24 2.33 5.8 2.33 1.88 0 5-1.54 12.59-5.27l2-1c1.12-.56 1.66-1.56 1.3-2.46z"/></svg>