<svg id="Layer_1" data-name="Layer 1" xmlns="http://www.w3.org/2000/svg" viewBox="0 0 23.05 33.81"><defs><style>.cls-1{fill:#657cad}</style></defs><title>Vector Smart Object11</title><path class="cls-1" d="M19.94 13.84V9.57a8.47 8.47 0 0 0-2.46-6 8.53 8.53 0 0 0-6-2.46 8.43 8.43 0 0 0-8.41 8.46v4.27a3 3 0 0 0-2.3 3v12.78a3.07 3.07 0 0 0 3.05 3.05h15.4a3.07 3.07 0 0 0 3.05-3.05V16.76a3.09 3.09 0 0 0-2.33-2.92zm-7.32 10v2.33a1.15 1.15 0 1 1-2.3 0v-2.36a2.22 2.22 0 0 1-1.05-1.87 2.17 2.17 0 0 1 4.33 0 2 2 0 0 1-.98 1.87zm3.61-10.11H6.72V9.57a4.81 4.81 0 0 1 4.79-4.76 4.69 4.69 0 0 1 3.35 1.38 4.74 4.74 0 0 1 1.38 3.35v4.17z"/></svg>